static_00
version=1
nRows=13
nColumns=46
inDegrees=yes
endheader
time	ground_force3_vx	ground_force3_vy	ground_force3_vz	ground_force3_px	ground_force3_py	ground_force3_pz	ground_torque3_x	ground_torque3_y	ground_torque3_z	ground_force5_vx	ground_force5_vy	ground_force5_vz	ground_force5_px	ground_force5_py	ground_force5_pz	ground_torque5_x	ground_torque5_y	ground_torque5_z	ground_force4_vx	ground_force4_vy	ground_force4_vz	ground_force4_px	ground_force4_py	ground_force4_pz	ground_torque4_x	ground_torque4_y	ground_torque4_z	ground_force1_vx	ground_force1_vy	ground_force1_vz	ground_force1_px	ground_force1_py	ground_force1_pz	ground_torque1_x	ground_torque1_y	ground_torque1_z	ground_force2_vx	ground_force2_vy	ground_force2_vz	ground_force2_px	ground_force2_py	ground_force2_pz	ground_torque2_x	ground_torque2_y	ground_torque2_z
0.000000	0.604032	25.276356	-2.745347	0.219597	0.000000	-0.277950	0.000001	0.238278	0.000001	0.313386	36.158211	-2.721109	0.219032	0.000000	-1.421649	0.000001	0.522680	0.000000	-3.065030	580.711670	-2.408655	0.215885	0.000000	-0.868125	-0.000010	-0.553233	0.000010	2.890344	14.974288	0.729407	0.201504	0.000000	0.861710	-0.000001	0.912677	0.000000	-1.005659	15.686069	1.851755	0.158159	0.000000	0.213996	-0.000000	1.151241	0.000000	
0.001000	-0.200333	26.540348	-3.067602	0.214092	0.000000	-0.270497	0.000000	0.150624	0.000000	-0.654400	37.436111	-2.078293	0.214860	0.000000	-1.409990	0.000004	0.676239	0.000000	-2.256729	581.359497	-2.086567	0.215526	0.000000	-0.867919	0.000001	-0.565268	0.000013	3.213281	14.660057	0.246106	0.219826	0.000000	0.838185	-0.000000	0.859596	0.000000	-1.648477	14.723478	2.333869	0.146553	0.000000	0.204965	-0.000000	1.262745	0.000000	
0.002000	0.443159	24.963699	-3.068284	0.224124	0.000000	-0.271171	0.000000	0.122678	0.000000	0.312367	36.474781	-2.721109	0.215493	0.000000	-1.410178	0.000004	0.645319	0.000000	-2.903987	581.359497	-2.572248	0.215202	0.000000	-0.868165	0.000016	-0.676040	-0.000000	3.374750	12.136374	0.568024	0.235711	0.000000	0.822684	-0.000000	0.811066	0.000000	-1.648477	13.460712	3.137733	0.156852	0.000000	0.214451	-0.000000	1.238759	0.000000	
0.003000	-0.200333	26.859863	-2.584219	0.224159	0.000000	-0.272377	0.000000	0.112197	0.000000	0.312367	40.301445	-2.560236	0.212505	0.000000	-1.421785	0.000003	0.650858	0.000001	-3.065030	582.636047	-2.409675	0.215559	0.000000	-0.868017	0.000031	-0.592986	0.000004	2.566548	16.232681	0.728558	0.200422	0.000000	0.858783	-0.000001	0.886368	-0.000000	-2.130167	17.916817	2.656636	0.173982	0.000000	0.225355	-0.000000	1.225951	0.000000	
0.004000	-0.361205	26.540680	-1.616430	0.216813	0.000000	-0.277016	0.000000	0.170822	0.000000	0.151664	39.025890	-2.238829	0.216224	0.000000	-1.412416	0.000003	0.611915	0.000000	-3.224529	581.674683	-2.085546	0.215509	0.000000	-0.868462	0.000052	-0.427440	0.000010	2.891203	14.028294	0.729407	0.214406	0.000000	0.835884	-0.000001	0.763788	0.000000	-0.523122	14.728118	2.656636	0.150120	0.000000	0.205769	-0.000000	1.146644	-0.000000	
0.005000	0.604032	26.859207	-2.099813	0.225461	0.000000	-0.262629	0.000000	0.221641	0.000001	0.311348	36.793667	-2.721449	0.212465	0.000000	-1.412614	0.000004	0.726433	0.000000	-3.549703	582.001648	-2.408655	0.215123	0.000000	-0.867767	0.000004	-0.539892	0.000008	2.889485	13.397576	1.535475	0.188654	0.000000	0.815931	-0.000001	0.921924	0.000000	-1.969886	17.274239	2.174521	0.168667	0.000000	0.235214	0.000000	1.241551	0.000000	
0.006000	-0.843824	26.225409	-2.423091	0.214461	0.000000	-0.266713	0.000000	0.107266	0.000000	0.473070	37.114220	-2.400717	0.219508	0.000000	-1.414882	0.000006	0.578679	0.000000	-2.578814	581.996948	-1.926033	0.215493	0.000000	-0.868779	0.000022	-0.530787	0.000014	2.891203	16.232159	1.051325	0.210758	0.000000	0.867279	-0.000001	0.853857	0.000000	-1.808758	15.058754	2.817002	0.155626	0.000000	0.253918	-0.000000	1.180335	0.000000	
0.007000	-0.522078	24.328590	-2.746370	0.212873	0.000000	-0.254760	0.000001	0.034584	0.000000	-0.169744	37.112885	-2.078293	0.214923	0.000000	-1.421084	0.000005	0.496382	0.000001	-2.578814	581.353394	-2.891277	0.215647	0.000000	-0.868825	-0.000005	-0.476985	-0.000002	3.050954	14.658266	1.051325	0.225092	0.000000	0.857701	-0.000001	0.962955	0.000000	-1.328760	15.040689	3.299116	0.160205	0.000000	0.213721	-0.000000	1.349642	0.000000	
0.008000	-0.200332	26.227047	-3.229753	0.224826	0.000000	-0.277398	0.000001	0.156509	0.000000	0.312367	40.300449	-2.882658	0.214273	0.000000	-1.419106	0.000003	0.545074	-0.000000	-2.741400	581.999634	-2.085546	0.215345	0.000000	-0.868998	0.000045	-0.507700	0.000011	3.375609	16.549179	0.408338	0.214194	0.000000	0.862851	-0.000000	0.954191	0.000000	-1.648477	16.637390	2.171468	0.151198	0.000000	0.225666	-0.000000	1.151879	0.000000	
0.009000	-0.200332	26.221813	-1.777899	0.209705	0.000000	-0.260879	0.000001	0.109813	0.000000	0.152173	38.708328	-2.881643	0.213740	0.000000	-1.420527	0.000002	0.549534	0.000000	-2.903987	582.638428	-2.408655	0.215310	0.000000	-0.868641	0.000021	-0.580197	0.000004	3.375609	13.403521	0.246955	0.206270	0.000000	0.866718	-0.000001	0.952129	0.000000	-1.165940	16.638573	2.171468	0.156511	0.000000	0.232728	-0.000000	1.054194	-0.000000	
0.010000	-0.361205	26.855286	-2.422410	0.214980	0.000000	-0.262985	0.000001	0.039782	0.000000	0.473070	37.432442	-3.042517	0.212654	0.000000	-1.421280	0.000002	0.682946	0.000000	-2.580358	582.640747	-3.052831	0.215344	0.000000	-0.869109	0.000029	-0.558810	0.000012	2.888626	13.401637	-0.075811	0.204488	0.000000	0.865558	-0.000000	1.035277	0.000000	-1.810451	16.008512	1.528988	0.152561	0.000000	0.235288	-0.000000	1.251173	0.000000	
0.011000	-0.200333	27.489082	-3.068284	0.217791	0.000000	-0.264996	0.000001	0.083458	0.000000	-0.170762	38.387440	-2.560575	0.210705	0.000000	-1.427532	0.000005	0.603221	0.000000	-2.259817	582.960632	-1.282875	0.215165	0.000000	-0.869505	0.000005	-0.761846	0.000006	3.214999	16.548885	0.891639	0.218784	0.000000	0.886159	-0.000001	0.949769	0.000000	-1.325375	18.235212	2.333869	0.160367	0.000000	0.257584	-0.000000	0.994866	0.000000	
0.012000	-0.200333	26.542311	-2.423432	0.222916	0.000000	-0.269469	0.000001	0.175371	0.000000	0.956200	35.838657	-2.560575	0.216973	0.000000	-1.422400	0.000005	0.673300	0.000000	-2.258272	580.714661	-1.602924	0.215555	0.000000	-0.868686	0.000046	-0.616267	0.000008	2.405079	12.767880	0.246955	0.225393	0.000000	0.835622	-0.000000	0.860085	0.000000	-1.488195	16.958055	2.172486	0.159369	0.000000	0.223163	-0.000000	1.193448	0.000000	
